HIERARCHY
ROOT SpineBase
{
  OFFSET 0.000000 0.000000 0.000000
  CHANNELS 6 Xposition Yposition Zposition Zrotation Xrotation Yrotation
  JOINT SpineMid
  {
    OFFSET 0.000000 31.795587 0.000000
    CHANNELS 3 Zrotation Xrotation Yrotation
    JOINT SpineShoulder
    {
      OFFSET 0.152157 23.602673 -0.863186
      CHANNELS 3 Zrotation Xrotation Yrotation
      JOINT Neck
      {
        OFFSET 0.109983 7.797491 -0.636699
        CHANNELS 3 Zrotation Xrotation Yrotation
        JOINT Head
        {
          OFFSET -5.925882 13.839355 -1.491116
          CHANNELS 3 Zrotation Xrotation Yrotation
          End Site
          {
            OFFSET 0 0 0
          }
        }
      }
      JOINT ShoulderLeft
      {
        OFFSET -17.777845 -6.784259 6.954903
        CHANNELS 3 Zrotation Xrotation Yrotation
        JOINT ElbowLeft
        {
          OFFSET -1.263454 -27.238324 2.202255
          CHANNELS 3 Zrotation Xrotation Yrotation
          JOINT WristLeft
          {
            OFFSET 0.160201 -22.377505 -2.815352
            CHANNELS 3 Zrotation Xrotation Yrotation
            JOINT HandLeft
            {
              OFFSET -0.770463 -7.079390 -0.177354
              CHANNELS 3 Zrotation Xrotation Yrotation
              JOINT HandTipLeft
              {
                OFFSET 0.647895 -6.038938 -1.516422
                CHANNELS 3 Zrotation Xrotation Yrotation
                End Site
                {
                  OFFSET 0 0 0
                }
              }
              JOINT ThumbLeft
              {
                OFFSET 3.702776 0.897730 -2.348341
                CHANNELS 3 Zrotation Xrotation Yrotation
                End Site
                {
                  OFFSET 0 0 0
                }
              }
            }
          }
        }
      }
      JOINT ShoulderRight
      {
        OFFSET 14.871657 -3.936656 -8.555292
        CHANNELS 3 Zrotation Xrotation Yrotation
        JOINT ElbowRight
        {
          OFFSET 7.476277 -26.550743 -0.858537
          CHANNELS 3 Zrotation Xrotation Yrotation
          JOINT WristRight
          {
            OFFSET 1.439453 -24.324492 -4.090399
            CHANNELS 3 Zrotation Xrotation Yrotation
            JOINT HandRight
            {
              OFFSET -1.021550 -7.380781 -0.388555
              CHANNELS 3 Zrotation Xrotation Yrotation
              JOINT HandTipRight
              {
                OFFSET 0.544706 -8.973370 0.410096
                CHANNELS 3 Zrotation Xrotation Yrotation
                End Site
                {
                  OFFSET 0 0 0
                }
              }
              JOINT ThumbRight
              {
                OFFSET 4.041634 1.153743 -0.495759
                CHANNELS 3 Zrotation Xrotation Yrotation
                End Site
                {
                  OFFSET 0 0 0
                }
              }
            }
          }
        }
      }
    }
  }
  JOINT HipLeft
  {
    OFFSET -6.068601 -0.244205 -0.978018
    CHANNELS 3 Zrotation Xrotation Yrotation
    JOINT KneeLeft
    {
      OFFSET 3.079912 -33.825722 6.175112
      CHANNELS 3 Zrotation Xrotation Yrotation
      JOINT AnkleLeft
      {
        OFFSET 6.044995 -36.059590 9.261172
        CHANNELS 3 Zrotation Xrotation Yrotation
        JOINT FootLeft
        {
          OFFSET -4.177197 -3.434952 -14.075113
          CHANNELS 3 Zrotation Xrotation Yrotation
          End Site
          {
            OFFSET 0 0 0
          }
        }
      }
    }
  }
  JOINT HipRight
  {
    OFFSET 7.386393 2.011136 -6.340278
    CHANNELS 3 Zrotation Xrotation Yrotation
    JOINT KneeRight
    {
      OFFSET 9.038566 -35.242412 1.989752
      CHANNELS 3 Zrotation Xrotation Yrotation
      JOINT AnkleRight
      {
        OFFSET 6.335945 -36.999364 6.977463
        CHANNELS 3 Zrotation Xrotation Yrotation
        JOINT FootRight
        {
          OFFSET -0.997791 -7.666158 -7.197811
          CHANNELS 3 Zrotation Xrotation Yrotation
          End Site
          {
            OFFSET 0 0 0
          }
        }
      }
    }
  }
}
MOTION
Frames: 14
Frame Time: 0.033333
-59.701169 77.832198 317.085140 4.297488 -5.678979 0.236983 0.651555 0.646553 0.129006 0.100772 0.341415 0.244301 -4.655519 10.860904 2.357300 0.000000 0.000000 0.000000 -7.824818 -11.713205 0.097323 1.421074 23.860733 -0.193298 1.208624 13.286176 -2.389258 5.743429 -11.411196 3.491204 0.000000 0.000000 0.000000 0.000000 0.000000 0.000000 39.159631 -21.167681 -2.133195 23.279619 8.855698 -16.089504 19.361818 0.521194 10.839324 -18.183363 0.299337 7.309213 0.000000 0.000000 0.000000 0.000000 0.000000 0.000000 -12.246173 14.791636 1.030625 16.376549 -17.539408 3.750081 -1.313119 -12.234863 -9.321866 0.000000 0.000000 0.000000 -8.880597 21.911125 5.327118 6.460314 -25.586272 -3.233051 -5.545456 34.421592 -0.105930 0.000000 0.000000 0.000000
-60.256543 77.393061 316.808548 5.358281 -4.914945 5.318094 0.784953 0.789856 -4.916140 0.055110 0.410488 0.278578 -2.761870 14.254215 4.001978 0.000000 0.000000 0.000000 -6.972197 -12.245968 0.253468 0.332067 26.959006 -0.398262 -4.694604 14.725005 -2.600502 8.124055 -11.683519 5.533156 0.000000 0.000000 0.000000 0.000000 0.000000 0.000000 46.521471 -7.898016 -2.936685 18.460662 3.805379 -13.283047 21.380269 0.248165 11.627147 -19.264544 -2.372188 10.078078 0.000000 0.000000 0.000000 0.000000 0.000000 0.000000 -11.642397 15.414573 -4.126017 16.351252 -17.910410 3.841495 -2.033071 -10.962494 -6.317666 0.000000 0.000000 0.000000 -7.062190 22.099096 -0.207374 6.322143 -26.683417 -3.154823 -10.720022 39.754322 4.105037 0.000000 0.000000 0.000000
-60.646322 77.033140 316.678107 6.273721 -3.991945 10.142943 0.808393 0.737426 -9.726075 0.000346 0.411447 0.305712 -1.278995 17.863829 5.604337 0.000000 0.000000 0.000000 -6.329876 -12.534529 0.375737 0.044259 29.069495 -0.842734 -10.992447 15.893612 -2.863937 7.332657 -9.307957 7.438634 0.000000 0.000000 0.000000 0.000000 0.000000 0.000000 50.512036 9.572632 -6.263543 14.414227 -2.513852 -10.424118 20.776020 2.182110 8.148970 -14.923377 -10.973877 17.204797 0.000000 0.000000 0.000000 0.000000 0.000000 0.000000 -10.972177 14.937788 -9.191256 15.952821 -16.951663 3.735258 -3.617206 -6.228172 -4.463860 0.000000 0.000000 0.000000 -5.051872 21.581176 -5.630476 5.711596 -27.011209 -3.142231 -17.962539 38.487777 11.370047 0.000000 0.000000 0.000000
-60.856232 76.977290 316.824688 7.077577 -3.295793 14.538208 0.781923 0.692860 -14.113344 -0.039592 0.419633 0.327784 -1.300553 21.231711 7.100920 0.000000 0.000000 0.000000 -6.160337 -12.647301 0.426176 0.961961 30.156604 -1.650166 -19.301941 16.352010 -3.004656 8.240907 -6.168836 9.584728 0.000000 0.000000 0.000000 0.000000 0.000000 0.000000 52.051479 30.196328 -11.346428 11.267100 -7.170901 -9.889290 21.374854 0.646363 8.394444 -8.875852 -12.662547 20.988709 0.000000 0.000000 0.000000 0.000000 0.000000 0.000000 -10.703751 14.204851 -13.801334 15.790241 -15.114508 3.690513 -4.267192 -7.783373 1.747580 0.000000 0.000000 0.000000 -3.514616 21.094501 -10.495653 5.569797 -26.810103 -2.916887 -25.125096 32.180828 18.895539 0.000000 0.000000 0.000000
-60.903984 77.242863 317.215909 7.568298 -2.874064 17.938395 0.606277 0.620775 -17.507846 -0.116273 0.381356 0.336065 -1.752320 23.963701 8.314961 0.000000 0.000000 0.000000 -6.275964 -12.720065 0.409755 2.503944 30.181748 -2.447533 -26.123653 15.538394 -2.993201 8.679869 -3.753487 10.893445 0.000000 0.000000 0.000000 0.000000 0.000000 0.000000 50.232485 52.321531 -16.368791 8.104530 -12.129279 -10.687048 21.857576 1.569222 4.674889 -7.064868 -13.017735 21.534596 0.000000 0.000000 0.000000 0.000000 0.000000 0.000000 -10.498389 13.114927 -17.380085 15.032892 -12.238187 3.440943 -5.914008 -3.965522 2.809039 0.000000 0.000000 0.000000 -2.253991 20.498364 -14.282771 5.363205 -25.917978 -2.690663 -28.248035 29.296931 21.838900 0.000000 0.000000 0.000000
-60.838898 77.967012 317.673154 7.678401 -2.926518 18.995824 0.310739 0.496199 -18.541255 -0.194166 0.288661 0.335165 -3.083239 26.279842 9.365548 0.000000 0.000000 0.000000 -6.720887 -12.742750 0.339784 4.566839 28.973180 -3.156774 -30.220875 14.842597 -2.429315 11.888314 -5.046795 10.550930 0.000000 0.000000 0.000000 0.000000 0.000000 0.000000 36.319407 73.306173 -11.949336 3.903262 -13.457675 -14.724347 22.727227 0.907475 2.047915 -12.449594 -9.754690 13.362516 0.000000 0.000000 0.000000 0.000000 0.000000 0.000000 -10.503997 11.548603 -18.555582 13.703162 -8.533389 3.031839 -5.502686 -5.991191 4.627950 0.000000 0.000000 0.000000 -1.533481 20.227789 -15.519026 5.004029 -24.506675 -2.543178 -28.745020 27.268965 22.003873 0.000000 0.000000 0.000000
-60.728378 79.059209 318.065342 7.491485 -3.337415 19.485781 0.098170 0.388724 -19.000940 -0.201541 0.265161 0.326528 -3.852722 27.855551 10.004552 0.000000 0.000000 0.000000 -6.344983 -12.119803 0.381936 5.392988 26.797531 -3.470327 -30.750429 14.442426 -1.671964 12.363372 -5.711287 9.619040 0.000000 0.000000 0.000000 0.000000 0.000000 0.000000 -60.843285 80.869012 74.221059 -0.715523 -13.796950 -19.762815 22.515978 2.322908 -2.163194 -21.083593 -5.532300 1.776472 0.000000 0.000000 0.000000 0.000000 0.000000 0.000000 -10.206440 10.088315 -19.124961 12.004913 -4.688239 2.615905 -3.623763 -11.156183 5.986109 0.000000 0.000000 0.000000 -0.890257 19.717599 -16.218216 4.561148 -22.181122 -2.355708 -28.554982 25.435289 21.491107 0.000000 0.000000 0.000000
-60.595457 80.312477 318.388479 6.960887 -4.109489 18.807830 -0.171308 0.251616 -18.289038 -0.226370 0.226703 0.305353 -4.251333 28.683051 10.206360 0.000000 0.000000 0.000000 -5.571309 -11.101683 0.452247 4.984088 23.284390 -3.146076 -28.760861 13.288404 -0.589464 12.571191 -4.473981 8.138002 0.000000 0.000000 0.000000 0.000000 0.000000 0.000000 -96.773433 65.618784 98.061802 -6.391269 -12.904850 -25.322364 19.958488 1.853356 -6.475670 -24.119112 -4.109150 -6.178454 0.000000 0.000000 0.000000 0.000000 0.000000 0.000000 -9.534318 8.852266 -18.492942 10.113685 -1.256257 2.260518 -2.767807 -11.875374 5.431094 0.000000 0.000000 0.000000 -0.348926 19.251150 -15.721536 3.811987 -19.520465 -2.278512 -26.725850 24.668313 19.569885 0.000000 0.000000 0.000000
-60.380698 81.576692 318.580838 6.275945 -5.084151 18.155452 -0.219756 0.154585 -17.617252 -0.179495 0.236779 0.286109 -4.352264 28.874625 10.028410 0.000000 0.000000 0.000000 -4.903053 -10.032937 0.505974 4.094883 20.295140 -2.662247 -22.920138 13.977746 0.006483 10.453244 -4.629526 6.565548 0.000000 0.000000 0.000000 0.000000 0.000000 0.000000 -102.523498 51.422492 91.541649 -12.714620 -12.428009 -30.664757 11.211520 -2.978151 -13.977179 -17.413489 -2.161175 -6.525460 0.000000 0.000000 0.000000 0.000000 0.000000 0.000000 -8.592914 8.197959 -17.862454 8.259682 1.355918 1.978772 -3.079801 -9.116279 6.350585 0.000000 0.000000 0.000000 0.175490 18.823792 -15.282828 3.239495 -16.598973 -2.104078 -24.760545 23.906632 17.568720 0.000000 0.000000 0.000000
-60.166104 82.653991 318.609985 5.601082 -6.030126 18.173855 -0.254495 0.163171 -17.634755 -0.182834 0.253264 0.262821 -3.409930 29.679234 9.955684 0.000000 0.000000 0.000000 -4.180521 -9.102876 0.546865 2.623981 17.342231 -1.988715 -16.531988 13.887223 0.173861 6.895511 -5.001413 4.921198 0.000000 0.000000 0.000000 0.000000 0.000000 0.000000 -105.520804 40.191780 83.649490 -19.808873 -14.546095 -38.201904 -3.194907 -25.043442 -33.125902 -11.395035 18.054213 8.160344 0.000000 0.000000 0.000000 0.000000 0.000000 0.000000 -7.506651 7.899075 -17.905343 6.685570 3.182518 1.772383 -2.679300 -8.484573 7.163932 0.000000 0.000000 0.000000 0.958969 18.212726 -15.611097 2.300599 -13.938344 -2.044359 -23.230753 23.017610 16.490181 0.000000 0.000000 0.000000
-59.978706 83.382023 318.347740 4.924061 -6.756750 18.782390 -0.289530 0.191676 -18.265126 -0.201960 0.265798 0.237282 -2.059854 29.960076 9.640105 0.000000 0.000000 0.000000 -3.440314 -8.405584 0.574773 0.788056 14.802337 -1.247514 -10.540170 15.599234 -0.048970 2.959766 -8.046501 3.745226 0.000000 0.000000 0.000000 0.000000 0.000000 0.000000 -107.859637 31.802175 77.051599 -26.158428 -18.949831 -48.433441 -13.793777 -45.553405 -57.363933 -31.441552 36.730691 35.611093 0.000000 0.000000 0.000000 0.000000 0.000000 0.000000 -6.496735 8.207814 -18.545120 5.944221 3.320136 1.608158 -2.211528 -8.377297 8.129563 0.000000 0.000000 0.000000 1.963436 17.450100 -16.567392 1.214967 -12.133096 -2.089910 -22.346051 22.407068 16.378808 0.000000 0.000000 0.000000
-59.862951 83.647465 317.811081 4.355392 -7.202350 20.282930 -0.294960 0.182542 -19.797544 -0.205261 0.254626 0.217581 -1.338751 30.422100 9.604595 0.000000 0.000000 0.000000 -2.866720 -7.933653 0.590160 -1.000637 12.505010 -0.594277 -5.662155 17.710868 -0.512381 -0.005782 -7.915414 3.370248 0.000000 0.000000 0.000000 0.000000 0.000000 0.000000 -112.683899 22.135786 69.997523 -24.915080 -25.660915 -55.592895 -8.229234 -57.522292 -67.149563 -49.097439 32.504908 46.231185 0.000000 0.000000 0.000000 0.000000 0.000000 0.000000 -5.554093 8.928591 -20.077506 5.907144 2.160621 1.459002 0.970260 -14.370483 5.438817 0.000000 0.000000 0.000000 3.061667 16.577665 -18.405501 0.460853 -11.281500 -2.120427 -22.252807 22.187939 16.939382 0.000000 0.000000 0.000000
-59.637765 83.613594 317.198576 3.810936 -7.368200 21.419053 -0.328389 0.151612 -20.977964 -0.226860 0.263784 0.194743 0.043194 30.608581 9.398040 0.000000 0.000000 0.000000 -2.288193 -7.732792 0.601368 -3.051544 10.958005 0.104928 -1.556994 17.283681 -0.987309 -7.311065 -7.017295 3.310726 0.000000 0.000000 0.000000 0.000000 0.000000 0.000000 -115.290071 14.812072 60.904142 -21.497623 -29.249930 -57.022621 2.559164 -49.975618 -56.172330 -37.065110 16.143137 21.389234 0.000000 0.000000 0.000000 0.000000 0.000000 0.000000 -5.083340 9.328686 -21.291911 6.439192 0.986003 1.407606 3.519210 -20.046934 2.823339 0.000000 0.000000 0.000000 3.707865 15.440585 -19.823079 -0.149982 -10.475144 -2.116169 -21.650173 22.608040 17.012765 0.000000 0.000000 0.000000
-59.349469 83.543160 316.632570 3.341868 -7.420687 22.672948 -0.273338 0.310353 -22.282114 -0.210248 0.336056 0.170929 0.866433 30.152150 9.206219 0.000000 0.000000 0.000000 -1.838434 -7.916068 0.610544 -4.893416 10.600393 0.733922 1.083802 14.925755 -1.214639 -15.285395 -4.444584 4.277855 0.000000 0.000000 0.000000 0.000000 0.000000 0.000000 -116.930557 10.365710 53.636923 -16.473751 -30.430177 -53.335775 5.863082 -33.491323 -40.582635 -31.382988 -12.528776 -24.344280 0.000000 0.000000 0.000000 0.000000 0.000000 0.000000 -4.888911 9.949017 -22.617792 7.593559 -0.425871 1.489458 6.084211 -27.668680 -0.901172 0.000000 0.000000 0.000000 3.988315 14.470874 -21.277782 -0.170289 -10.023485 -2.027516 -21.368418 23.265193 17.134498 0.000000 0.000000 0.000000
